<?xml version="1.0" encoding="utf-8"?>
<!-- Generator: Adobe Illustrator 16.0.0, SVG Export Plug-In . SVG Version: 6.00 Build 0)  -->
<!DOCTYPE svg PUBLIC "-//W3C//DTD SVG 1.1//EN" "http://www.w3.org/Graphics/SVG/1.1/DTD/svg11.dtd">
<svg version="1.1"
	 id="svg8502" xmlns:dc="http://purl.org/dc/elements/1.1/" xmlns:svg="http://www.w3.org/2000/svg" xmlns:cc="http://creativecommons.org/ns#" xmlns:inkscape="http://www.inkscape.org/namespaces/inkscape" xmlns:sodipodi="http://sodipodi.sourceforge.net/DTD/sodipodi-0.dtd" xmlns:rdf="http://www.w3.org/1999/02/22-rdf-syntax-ns#" inkscape:export-xdpi="90" sodipodi:docname="get-it-on-github.svg" inkscape:export-filename="/home/nixdorf/Lokaler Speicher/Build/andOTP/assets/badges/get-it-on-github.png" inkscape:export-ydpi="90" inkscape:version="0.91 r13725"
	 xmlns="http://www.w3.org/2000/svg" xmlns:xlink="http://www.w3.org/1999/xlink" x="0px" y="0px" width="732.271px" height="250px"
	 viewBox="0 0 732.271 250" enable-background="new 0 0 732.271 250" xml:space="preserve">
<sodipodi:namedview  bordercolor="#666666" id="base" pagecolor="#ffffff" borderopacity="1.0" inkscape:zoom="0.50000001" inkscape:cx="-223.13537" inkscape:cy="546.37524" showgrid="true" fit-margin-top="0" fit-margin-left="0" inkscape:pageopacity="0.0" inkscape:document-units="px" inkscape:current-layer="layer1" inkscape:pageshadow="2" fit-margin-right="0" fit-margin-bottom="0" inkscape:window-width="1920" inkscape:window-height="1021" inkscape:window-y="31" inkscape:window-maximized="1" inkscape:window-x="0">
	</sodipodi:namedview>
<path id="rect3007" stroke="#0078D4" stroke-width="4" d="M63,43h607c11.046,0,20,8.954,20,20v124c0,11.046-8.954,20-20,20H63
	c-11.046,0-20-8.954-20-20V63C43,51.954,51.954,43,63,43z"/>
<text transform="matrix(1 0 0 1 220.8042 90.0049)" fill="#FFFFFF" font-family="'ArialMT'" font-size="34.125">GET IT ON</text>
<g id="g5136" transform="matrix(1.0017681,0,0,1.0017681,68.770756,92.660249)">
	<path id="path4937" inkscape:connector-curvature="0" fill="#FFFFFF" d="M62.119-29.373c-33.348,0-60.387,27.035-60.387,60.387
		c0,26.679,17.301,49.317,41.297,57.301c3.016,0.559,4.125-1.307,4.125-2.907c0-1.437-0.055-6.194-0.082-11.242
		c-16.801,3.652-20.344-7.124-20.344-7.124c-2.75-6.982-6.707-8.836-6.707-8.836c-5.481-3.747,0.414-3.673,0.414-3.673
		c6.063,0.427,9.258,6.223,9.258,6.223c5.383,9.234,14.125,6.567,17.57,5.023c0.543-3.902,2.11-6.569,3.836-8.078
		c-13.414-1.527-27.515-6.703-27.515-29.844c0-6.593,2.359-11.98,6.222-16.207c-0.625-1.524-2.692-7.664,0.586-15.981
		c0,0,5.071-1.625,16.609,6.187c4.821-1.336,9.985-2.008,15.117-2.031c5.133,0.023,10.301,0.696,15.129,2.031
		c11.524-7.812,16.59-6.187,16.59-6.187c3.285,8.316,1.219,14.457,0.59,15.981c3.871,4.226,6.215,9.613,6.215,16.207
		c0,23.195-14.125,28.302-27.574,29.797c2.168,1.876,4.098,5.551,4.098,11.183c0,8.078-0.071,14.583-0.071,16.57
		c0,1.609,1.086,3.492,4.148,2.899c23.981-7.998,41.262-30.623,41.262-57.294C122.506-2.338,95.471-29.373,62.119-29.373"/>
	<path id="path4939" inkscape:connector-curvature="0" fill="#FFFFFF" d="M24.604,57.33c-0.133,0.3-0.605,0.386-1.035,0.183
		c-0.437-0.199-0.683-0.605-0.543-0.91c0.129-0.308,0.602-0.39,1.039-0.187C24.506,56.615,24.756,57.029,24.604,57.33"/>
	<path id="path4941" inkscape:connector-curvature="0" fill="#FFFFFF" d="M27.049,60.056c-0.289,0.266-0.852,0.145-1.234-0.277
		c-0.395-0.421-0.469-0.985-0.176-1.258c0.297-0.265,0.844-0.14,1.238,0.281C27.272,59.228,27.35,59.787,27.049,60.056"/>
	<path id="path4943" inkscape:connector-curvature="0" fill="#FFFFFF" d="M29.432,63.533c-0.371,0.258-0.977,0.017-1.352-0.52
		c-0.371-0.54-0.371-1.181,0.008-1.437c0.375-0.258,0.973-0.029,1.352,0.503C29.807,62.626,29.807,63.271,29.432,63.533"/>
	<path id="path4945-3" inkscape:connector-curvature="0" fill="#FFFFFF" d="M32.694,66.891c-0.332,0.368-1.039,0.271-1.555-0.23
		c-0.527-0.484-0.676-1.176-0.344-1.542c0.336-0.365,1.046-0.262,1.566,0.23C32.885,65.839,33.045,66.533,32.694,66.891"/>
	<path id="path4947-6" inkscape:connector-curvature="0" fill="#FFFFFF" d="M37.194,68.845c-0.149,0.474-0.828,0.688-1.512,0.489
		c-0.683-0.209-1.129-0.762-0.992-1.244c0.144-0.472,0.824-0.698,1.515-0.484C36.885,67.814,37.334,68.365,37.194,68.845"/>
	<path id="path4949" inkscape:connector-curvature="0" fill="#FFFFFF" d="M42.135,69.21c0.016,0.495-0.562,0.91-1.281,0.917
		c-0.723,0.017-1.309-0.387-1.317-0.874c0-0.505,0.57-0.913,1.289-0.926C41.545,68.311,42.135,68.712,42.135,69.21"/>
	<path id="path4951-7" inkscape:connector-curvature="0" fill="#FFFFFF" d="M46.733,68.424c0.086,0.487-0.414,0.985-1.125,1.117
		c-0.703,0.129-1.352-0.172-1.441-0.653c-0.086-0.499,0.422-0.996,1.121-1.125C46.002,67.638,46.643,67.933,46.733,68.424"/>
</g>
<rect x="75.9" y="-114.948" fill="#0078D4" width="87.327" height="87.328"/>
<g>
	<g>
		<path fill="#FFFFFF" d="M646.396,180.902c-1.29,0-2.581-0.006-3.871-0.012c-1.291-0.005-2.581-0.01-3.872-0.01l-89.143-0.001
			c-3.3,0-6.003-0.843-8.263-2.575c-1.885-1.447-2.842-3.296-2.846-5.494l-0.01-6.148c-0.012-8.361-0.023-17.008,0.017-25.508
			c0.018-4.002,3.061-6.904,7.235-6.904c4.313,0.042,7.282,2.925,7.309,7.011c0.05,8.156,0.043,15.403-0.021,22.155
			c-0.006,0.604,0.04,1.211,0.409,1.584c0.296,0.299,0.758,0.426,1.543,0.426c14.759-0.021,29.504-0.031,44.245-0.031
			c15.639,0,31.273,0.013,46.913,0.041l0,0c0.818,0,1.293-0.131,1.601-0.441c0.356-0.359,0.423-0.893,0.415-1.689
			c-0.05-5.795-0.041-11.688-0.032-17.387l0.006-4.438c0.003-3.381,1.464-5.684,4.343-6.838c0.963-0.388,1.964-0.584,2.977-0.584
			c2.089,0,4.039,0.83,5.493,2.334c1.178,1.221,1.751,2.752,1.754,4.682l0.013,7.359c0.015,7.582,0.029,15.422-0.029,23.129
			c-0.041,5.438-4.303,9.174-10.604,9.295C650.117,180.893,648.256,180.902,646.396,180.902z"/>
		<path d="M655.351,134.309c2.021,0,3.907,0.801,5.313,2.258c1.13,1.17,1.681,2.646,1.684,4.507c0.002,2.454,0.008,4.907,0.013,7.36
			c0.015,7.58,0.029,15.42-0.029,23.127c-0.041,5.375-4.106,8.926-10.358,9.045c-1.636,0.031-3.406,0.047-5.575,0.047
			c-1.29,0-2.58-0.006-3.87-0.01c-1.291-0.006-2.582-0.011-3.873-0.011H625.88h-12.773h-12.775l-50.817-0.001
			c-3.242,0-5.896-0.824-8.109-2.523c-1.846-1.416-2.744-3.148-2.748-5.297l-0.008-6.147c-0.014-8.361-0.025-17.006,0.015-25.507
			c0.017-3.856,2.955-6.655,6.986-6.655h0.08c4.084,0.04,6.953,2.821,6.978,6.763c0.05,8.154,0.043,15.399-0.021,22.15
			c-0.006,0.656,0.048,1.324,0.48,1.763c0.438,0.44,1.115,0.5,1.736,0.5h0.001c14.742-0.021,29.482-0.032,44.226-0.032
			c16.087,0,31.871,0.015,46.93,0.043c0.879,0,1.405-0.154,1.765-0.518c0.461-0.465,0.494-1.178,0.488-1.867
			c-0.05-5.794-0.041-11.686-0.033-17.384l0.006-4.438c0.003-3.271,1.411-5.492,4.188-6.606
			C653.4,134.498,654.37,134.309,655.351,134.309 M655.351,133.809c-1.021,0-2.063,0.195-3.068,0.601
			c-2.967,1.19-4.497,3.582-4.5,7.069c-0.006,7.275-0.035,14.553,0.026,21.828c0.013,1.358-0.193,1.879-1.753,1.879
			c-0.004,0-0.009,0-0.013,0c-15.639-0.028-31.277-0.041-46.916-0.041c-14.742,0-29.484,0.012-44.227,0.031
			c-0.006,0-0.011,0-0.017,0c-1.403,0-1.715-0.4-1.702-1.758c0.069-7.385,0.065-14.773,0.021-22.159
			c-0.026-4.251-3.144-7.216-7.473-7.259c-0.028,0-0.058,0-0.086,0c-4.257,0-7.468,2.975-7.485,7.152
			c-0.05,10.552-0.02,21.104-0.007,31.658c0.004,2.391,1.071,4.256,2.942,5.692c2.483,1.904,5.34,2.627,8.415,2.627
			c16.94,0.001,33.88,0.001,50.817,0.001c8.518,0,17.033,0,25.55,0c4.258,0,8.517,0,12.773,0c2.581,0,5.162,0.021,7.743,0.021
			c1.862,0,3.726-0.012,5.586-0.047c6.455-0.123,10.807-3.907,10.85-9.543c0.078-10.162,0.026-20.326,0.018-30.49
			c-0.003-1.836-0.508-3.49-1.824-4.854C659.506,134.646,657.465,133.809,655.351,133.809L655.351,133.809z"/>
	</g>
	<g>
		<path fill="#FFFFFF" d="M600.53,157.2c-1.563,0-3.199-0.968-5.304-3.136c-3.219-3.315-6.452-6.727-9.581-10.022
			c-1.366-1.44-2.733-2.882-4.104-4.319l-5.884-6.179c-4.017-4.214-8.03-8.428-12.039-12.648c-2.636-2.773-2.939-6.541-0.738-9.161
			c1.284-1.528,3.037-2.37,4.938-2.37c1.909,0,3.764,0.855,5.22,2.407c2.901,3.09,5.805,6.276,8.612,9.357
			c1.259,1.382,2.519,2.764,3.78,4.142l8.497,9.266v-19.729c0.001-15.189,0.002-30.379-0.002-45.568
			c-0.001-2.966,1.246-5.065,3.705-6.24c0.997-0.476,1.994-0.717,2.965-0.717c1.385,0,2.725,0.488,3.979,1.45
			c1.695,1.295,2.517,3.142,2.513,5.646c-0.013,10.583-0.012,21.166-0.01,31.75l0.001,33.382l3.13-3.396
			c1.795-1.948,3.521-3.82,5.243-5.699c1.337-1.458,2.667-2.923,3.998-4.387c2.768-3.045,5.63-6.194,8.501-9.238
			c1.472-1.56,3.363-2.418,5.324-2.418c2.742,0,5.006,1.645,5.903,4.293c0.891,2.624,0.287,5.057-1.79,7.233
			c-9.277,9.723-18.553,19.453-27.823,29.185c-0.587,0.616-1.167,1.238-1.746,1.861c-0.632,0.679-1.264,1.355-1.904,2.025
			C603.771,156.204,602.112,157.2,600.53,157.2z"/>
		<path d="M600.596,62.533c1.328,0,2.616,0.47,3.828,1.398c1.629,1.245,2.418,3.026,2.414,5.448
			c-0.014,10.582-0.012,21.164-0.01,31.746l0.001,10.582v22.164v1.281l0.868-0.942l2.696-2.929c1.796-1.946,3.521-3.818,5.241-5.696
			c1.337-1.459,2.668-2.923,3.999-4.388c2.769-3.044,5.629-6.193,8.498-9.234c1.425-1.509,3.251-2.34,5.144-2.34
			c2.633,0,4.805,1.58,5.667,4.124c0.87,2.564,0.303,4.847-1.733,6.98c-9.279,9.723-18.554,19.455-27.824,29.185
			c-0.588,0.615-1.168,1.238-1.749,1.863c-0.63,0.677-1.261,1.354-1.9,2.022c-2.091,2.181-3.696,3.152-5.204,3.152
			c-1.49,0-3.07-0.943-5.124-3.06c-3.217-3.314-6.451-6.725-9.578-10.021c-1.367-1.439-2.734-2.883-4.104-4.32l-5.882-6.175
			c-4.017-4.216-8.032-8.431-12.042-12.651c-2.585-2.721-2.878-6.269-0.728-8.828c1.235-1.471,2.921-2.281,4.745-2.281
			c1.84,0,3.629,0.827,5.038,2.329c2.898,3.088,5.802,6.273,8.608,9.354c1.259,1.382,2.52,2.765,3.782,4.143l4.222,4.604
			l3.841,4.188l0.868,0.947v-1.285v-1.998V114.83c0.001-15.196,0.002-30.393-0.002-45.589c-0.001-2.902,1.164-4.869,3.563-6.015
			C598.702,62.766,599.663,62.533,600.596,62.533 M600.596,62.033c-1.007,0-2.035,0.247-3.071,0.741
			c-2.679,1.279-3.85,3.537-3.849,6.466c0.005,20.885,0.002,41.771,0.002,62.656c0,0.535,0,1.072,0,1.998
			c-2.885-3.146-5.475-5.97-8.063-8.792c-4.128-4.504-8.214-9.048-12.396-13.501c-1.562-1.665-3.506-2.486-5.401-2.486
			c-1.902,0-3.757,0.827-5.128,2.459c-2.293,2.729-2.002,6.6,0.748,9.494c5.968,6.282,11.947,12.55,17.924,18.827
			c4.559,4.785,9.084,9.604,13.687,14.346c2.08,2.144,3.784,3.211,5.482,3.211c1.729,0,3.454-1.105,5.564-3.307
			c1.23-1.285,2.425-2.603,3.65-3.889c9.271-9.73,18.546-19.462,27.824-29.185c2.053-2.15,2.811-4.642,1.846-7.486
			c-0.981-2.895-3.474-4.463-6.141-4.463c-1.908,0-3.907,0.803-5.507,2.497c-4.229,4.483-8.337,9.083-12.502,13.627
			c-2.563,2.799-5.141,5.585-7.938,8.624c0-7.636,0-14.901,0-22.164c0-14.109-0.009-28.218,0.009-42.327
			c0.004-2.363-0.706-4.39-2.61-5.846C603.422,62.535,602.031,62.033,600.596,62.033L600.596,62.033z"/>
	</g>
</g>
<rect x="500.365" y="-79.182" fill="#FFFFFF" width="31.018" height="33.774"/>
<rect x="650.594" y="-47.13" fill="#FFFFFF" width="25.503" height="21.367"/>
<rect x="5.514" y="-66.085" width="40.93" height="34.463"/>
<g>
	<path fill="#FFFFFF" d="M222.767,144.853c0.238-2.893,0.249-5.828,0.771-8.668c0.714-3.898,1.451-7.859,2.826-11.551
		c3.328-8.937,9.901-14.368,19.264-16.215c8.541-1.685,17.051-1.239,25.428,1.078c4.354,1.205,4.314,1.321,3.227,5.733
		c-0.54,2.192-1.13,4.375-1.559,6.588c-0.318,1.642-1.055,1.99-2.618,1.491c-5.585-1.777-11.314-2.091-17.106-1.377
		c-6.51,0.802-10.867,4.371-12.74,10.618c-2.399,7.999-2.365,16.11,0.104,24.079c2.072,6.687,6.73,9.955,13.726,10.046
		c2.37,0.027,4.743-0.245,7.116-0.342c1.051-0.039,1.439-0.496,1.428-1.554c-0.044-3.748-0.045-7.497,0.001-11.245
		c0.013-1.07-0.33-1.482-1.433-1.453c-2.318,0.063-4.641-0.029-6.959,0.033c-1.337,0.036-1.95-0.384-1.916-1.829
		c0.076-3.212,0.063-6.426,0.006-9.639c-0.023-1.334,0.544-1.775,1.813-1.771c7.318,0.025,14.637,0.033,21.954-0.006
		c1.483-0.007,1.965,0.61,1.96,2.042c-0.034,10.947-0.041,21.895,0.01,32.84c0.006,1.287-0.523,1.938-1.571,2.482
		c-7.336,3.812-15.185,5.202-23.327,4.433c-4.223-0.402-8.549-1.075-12.518-2.497c-9.498-3.402-14.392-10.906-16.383-20.438
		c-0.713-3.414-0.845-6.947-1.244-10.426c-0.08-0.701-0.171-1.396-0.257-2.095C222.767,145.091,222.767,144.973,222.767,144.853z"/>
	<path fill="#FFFFFF" d="M363.146,135.927c7.621,0,14.979,0,22.611,0c0-0.762,0-1.449,0-2.135c0-7.08-0.004-14.161,0.002-21.241
		c0.002-2.308,0.08-2.375,2.438-2.379c3.57-0.006,7.142,0.064,10.709-0.031c1.669-0.044,2.313,0.453,2.307,2.217
		c-0.045,21.657-0.041,43.315-0.005,64.975c0.002,1.634-0.557,2.197-2.188,2.156c-3.746-0.092-7.497-0.088-11.244,0
		c-1.584,0.037-2.079-0.571-2.07-2.089c0.053-8.688,0.044-17.373,0.049-26.063c0-0.469-0.054-0.937-0.092-1.569
		c-7.445,0-14.833,0-22.424,0c-0.031,0.698-0.087,1.384-0.089,2.072c-0.005,8.449,0,16.896-0.005,25.348
		c-0.001,2.238-0.037,2.269-2.326,2.271c-3.689,0.002-7.379-0.044-11.067,0.023c-1.464,0.025-1.994-0.498-1.991-1.974
		c0.029-21.777,0.032-43.556-0.007-65.331c-0.004-1.602,0.598-2.062,2.104-2.032c3.688,0.071,7.38,0.094,11.066-0.008
		c1.695-0.048,2.277,0.482,2.258,2.223c-0.084,7.139-0.035,14.28-0.035,21.421C363.146,134.428,363.146,135.07,363.146,135.927z"/>
	<path fill="#FFFFFF" d="M473.24,176.039c-0.895,3.844-0.151,3.396-4.232,3.42c-1.901,0.012-3.81-0.063-5.707,0.022
		c-1.502,0.066-2.08-0.575-1.949-2.008c0.021-0.237,0.002-0.478,0.002-0.713c0-21.292,0-42.579,0-63.87
		c0-2.714,0.002-2.717,2.634-2.719c3.566-0.003,7.139,0.069,10.702-0.032c1.674-0.048,2.172,0.582,2.155,2.184
		c-0.058,6.422-0.021,12.844-0.021,19.268c0,0.647,0,1.295,0,2.211c0.658-0.266,1.119-0.429,1.561-0.631
		c4.664-2.137,9.554-2.815,14.619-2.176c7.152,0.905,12.105,5.545,13.861,13.418c1.832,8.203,1.56,16.455-0.762,24.526
		c-2.31,8.031-7.577,11.644-16.549,11.846C483.863,180.918,480.103,179.831,473.24,176.039z M476.546,155.828
		c0,3.093,0.053,6.188-0.029,9.278c-0.03,1.151,0.415,1.71,1.426,2.117c2.871,1.162,5.809,1.645,8.896,1.271
		c2.373-0.286,4.032-1.517,4.711-3.766c0.513-1.691,0.971-3.487,0.957-5.23c-0.034-3.721-0.03-7.508-0.711-11.143
		c-0.709-3.783-3.319-5.563-7.123-5.322c-2.266,0.143-4.498,0.903-6.737,1.418c-1.093,0.252-1.443,0.961-1.418,2.099
		C476.596,149.642,476.545,152.734,476.546,155.828z"/>
	<path fill="#FFFFFF" d="M442.634,176.308c-4.205,2.371-8.568,4.004-13.321,4.408c-3.948,0.341-7.853,0.085-11.619-1.222
		c-6.234-2.159-8.631-7.138-8.769-13.176c-0.247-10.822-0.089-21.653-0.12-32.479c-0.003-1.037,0.397-1.553,1.458-1.552
		c4.166,0.01,8.331,0.023,12.494-0.008c1.509-0.011,1.534,0.965,1.533,2.041c-0.006,5.412-0.004,10.825-0.002,16.239
		c0,3.63-0.012,7.259,0.01,10.887c0.005,1.009,0.058,2.026,0.195,3.022c0.324,2.357,1.556,3.611,3.875,4.011
		c3.24,0.559,6.288-0.136,9.11-1.688c0.533-0.29,0.935-1.31,0.939-1.995c0.059-10.054,0.037-20.107,0.04-30.161
		c0.002-2.261,0.074-2.343,2.271-2.349c3.688-0.008,7.376,0.039,11.065-0.021c1.438-0.025,2.001,0.446,1.995,1.952
		c-0.04,14.456-0.036,28.912-0.004,43.367c0.003,1.368-0.454,1.95-1.863,1.905c-2.14-0.066-4.287-0.092-6.424,0.021
		c-1.588,0.086-2.536-0.328-2.529-2.086C442.972,177.09,442.775,176.757,442.634,176.308z"/>
	<path fill="#FFFFFF" d="M329.456,132.131c3.216,0,6.129,0.039,9.041-0.017c1.431-0.027,2.063,0.486,2.027,1.976
		c-0.067,2.854-0.059,5.715-0.002,8.567c0.025,1.359-0.459,1.938-1.871,1.906c-2.965-0.067-5.932-0.019-9.072-0.019
		c-0.047,0.695-0.117,1.263-0.118,1.831c-0.009,5.533-0.014,11.068-0.002,16.602c0.007,3.541,1.549,5.239,5.117,5.5
		c1.476,0.107,2.972,0.02,4.452-0.059c1.154-0.063,1.627,0.4,1.61,1.548c-0.036,2.675,0.048,5.357-0.081,8.029
		c-0.027,0.56-0.671,1.43-1.192,1.575c-5.449,1.518-10.945,1.653-16.324-0.234c-5.681-1.992-8.641-6.821-8.761-14.156
		c-0.102-6.127-0.031-12.257-0.034-18.386c-0.001-0.648-0.001-1.298-0.001-2.25c-2.047,0-3.986-0.074-5.917,0.021
		c-1.518,0.077-2.173-0.396-2.091-2.01c0.109-2.195,0.061-4.401,0.014-6.603c-0.023-1.063,0.327-1.642,1.438-1.841
		c1.518-0.273,2.993-0.794,4.516-1.02c1.557-0.232,2.168-0.844,2.087-2.53c-0.157-3.322,0.015-6.662-0.074-9.993
		c-0.036-1.387,0.358-1.891,1.798-1.859c3.865,0.083,7.734,0.076,11.602,0.002c1.379-0.026,1.891,0.373,1.85,1.812
		c-0.089,3.212-0.017,6.425-0.01,9.639C329.457,130.744,329.456,131.324,329.456,132.131z"/>
	<path fill="#FFFFFF" d="M301.754,155.931c0,7.021,0.008,14.036-0.005,21.053c-0.004,2.289-0.193,2.469-2.43,2.475
		c-3.509,0.01-7.018,0.017-10.525-0.004c-2.003-0.01-2.426-0.431-2.426-2.401c-0.008-14.272,0.011-28.543-0.025-42.815
		c-0.004-1.54,0.557-2.144,2.088-2.123c3.688,0.053,7.377,0.073,11.061-0.011c1.666-0.037,2.316,0.48,2.297,2.242
		C301.707,141.539,301.754,148.737,301.754,155.931z"/>
	<path fill="#FFFFFF" d="M293.94,111.678c4.688,0.017,8.453,3.723,8.451,8.318c-0.002,4.587-3.772,8.326-8.432,8.362
		c-4.69,0.035-8.641-3.845-8.585-8.432C285.43,115.371,289.284,111.66,293.94,111.678z"/>
</g>
</svg>
