<?xml version="1.0" encoding="utf-8"?>
<!-- Generator: Adobe Illustrator 16.0.0, SVG Export Plug-In . SVG Version: 6.00 Build 0)  -->
<!DOCTYPE svg PUBLIC "-//W3C//DTD SVG 1.1//EN" "http://www.w3.org/Graphics/SVG/1.1/DTD/svg11.dtd">
<svg version="1.1"
	 id="svg8502" xmlns:dc="http://purl.org/dc/elements/1.1/" xmlns:svg="http://www.w3.org/2000/svg" xmlns:cc="http://creativecommons.org/ns#" xmlns:inkscape="http://www.inkscape.org/namespaces/inkscape" xmlns:sodipodi="http://sodipodi.sourceforge.net/DTD/sodipodi-0.dtd" xmlns:rdf="http://www.w3.org/1999/02/22-rdf-syntax-ns#" inkscape:version="0.91 r13725" inkscape:export-ydpi="90" inkscape:export-filename="/home/nixdorf/Lokaler Speicher/Build/andOTP/assets/badges/get-it-on-github.png" sodipodi:docname="get-it-on-github.svg" inkscape:export-xdpi="90"
	 xmlns="http://www.w3.org/2000/svg" xmlns:xlink="http://www.w3.org/1999/xlink" x="0px" y="0px" width="732.271px" height="250px"
	 viewBox="0 0 732.271 250" enable-background="new 0 0 732.271 250" xml:space="preserve">
<sodipodi:namedview  fit-margin-left="0" fit-margin-top="0" showgrid="true" inkscape:cy="546.37524" inkscape:cx="-223.13537" inkscape:zoom="0.50000001" borderopacity="1.0" pagecolor="#ffffff" id="base" bordercolor="#666666" inkscape:window-x="0" inkscape:window-maximized="1" inkscape:window-y="31" inkscape:window-height="1021" inkscape:window-width="1920" fit-margin-bottom="0" fit-margin-right="0" inkscape:pageshadow="2" inkscape:document-units="px" inkscape:pageopacity="0.0" inkscape:current-layer="layer1">
	</sodipodi:namedview>
<path id="rect3007" stroke="#0078D4" stroke-width="4" d="M63,43h607c11.046,0,20,8.954,20,20v124c0,11.046-8.954,20-20,20H63
	c-11.046,0-20-8.954-20-20V63C43,51.954,51.954,43,63,43z"/>
<g enable-background="new    ">
	<path fill="#FFFFFF" d="M234.868,80.424v-2.866l10.347-0.017v9.064c-1.588,1.267-3.227,2.219-4.916,2.857s-3.421,0.959-5.199,0.959
		c-2.399,0-4.58-0.514-6.54-1.542c-1.96-1.027-3.441-2.513-4.44-4.457c-1-1.943-1.5-4.115-1.5-6.515
		c0-2.377,0.497-4.597,1.491-6.657s2.424-3.591,4.291-4.591c1.866-0.999,4.016-1.499,6.448-1.499c1.767,0,3.363,0.286,4.791,0.858
		s2.547,1.369,3.357,2.391c0.811,1.022,1.428,2.355,1.85,3.999l-2.916,0.8c-0.366-1.244-0.822-2.222-1.366-2.933
		s-1.322-1.28-2.333-1.708c-1.011-0.428-2.133-0.642-3.366-0.642c-1.478,0-2.755,0.226-3.833,0.675
		c-1.078,0.45-1.947,1.042-2.608,1.774c-0.661,0.733-1.175,1.539-1.541,2.416c-0.623,1.512-0.933,3.149-0.933,4.916
		c0,2.177,0.375,3.999,1.125,5.465c0.75,1.467,1.841,2.556,3.274,3.267c1.433,0.711,2.955,1.066,4.565,1.066
		c1.399,0,2.766-0.27,4.099-0.809s2.344-1.113,3.032-1.725v-4.549H234.868z"/>
	<path fill="#FFFFFF" d="M250.047,90.005V65.577h17.663v2.883h-14.43v7.481h13.514v2.866h-13.514v8.314h14.997v2.883H250.047z"/>
	<path fill="#FFFFFF" d="M278.957,90.005V68.46h-8.048v-2.883h19.362v2.883h-8.081v21.545H278.957z"/>
	<path fill="#FFFFFF" d="M303.001,90.005V65.577h3.232v24.428H303.001z"/>
	<path fill="#FFFFFF" d="M318.147,90.005V68.46h-8.048v-2.883h19.362v2.883h-8.081v21.545H318.147z"/>
	<path fill="#FFFFFF" d="M340.658,78.107c0-4.054,1.089-7.229,3.266-9.522s4.987-3.44,8.431-3.44c2.255,0,4.288,0.539,6.099,1.616
		c1.811,1.077,3.191,2.58,4.141,4.507c0.95,1.928,1.425,4.113,1.425,6.557c0,2.478-0.5,4.693-1.5,6.648
		c-1,1.955-2.416,3.436-4.249,4.44c-1.833,1.006-3.81,1.509-5.932,1.509c-2.299,0-4.354-0.556-6.165-1.667
		c-1.811-1.11-3.183-2.627-4.116-4.549S340.658,80.252,340.658,78.107z M343.991,78.158c0,2.943,0.792,5.263,2.375,6.956
		c1.583,1.694,3.568,2.541,5.957,2.541c2.433,0,4.435-0.855,6.007-2.565c1.572-1.711,2.358-4.139,2.358-7.282
		c0-1.988-0.336-3.724-1.008-5.207c-0.672-1.482-1.655-2.633-2.949-3.449c-1.294-0.816-2.747-1.225-4.357-1.225
		c-2.289,0-4.257,0.786-5.907,2.358C344.816,71.856,343.991,74.481,343.991,78.158z"/>
	<path fill="#FFFFFF" d="M368.151,90.005V65.577h3.316l12.83,19.179V65.577h3.1v24.428h-3.316l-12.83-19.195v19.195H368.151z"/>
</g>
<g id="g5136" transform="matrix(1.0017681,0,0,1.0017681,68.770756,92.660249)">
	<path id="path4937" inkscape:connector-curvature="0" fill="#FFFFFF" d="M62.119-29.373c-33.348,0-60.387,27.035-60.387,60.387
		c0,26.679,17.301,49.317,41.297,57.301c3.016,0.56,4.125-1.306,4.125-2.907c0-1.437-0.055-6.194-0.082-11.242
		c-16.801,3.652-20.344-7.124-20.344-7.124c-2.75-6.982-6.707-8.836-6.707-8.836c-5.481-3.747,0.414-3.673,0.414-3.673
		c6.063,0.427,9.258,6.223,9.258,6.223c5.383,9.234,14.125,6.567,17.57,5.023c0.543-3.902,2.11-6.569,3.836-8.078
		c-13.414-1.527-27.515-6.703-27.515-29.844c0-6.593,2.359-11.98,6.222-16.207c-0.625-1.524-2.692-7.664,0.586-15.981
		c0,0,5.071-1.625,16.609,6.187c4.821-1.336,9.985-2.008,15.117-2.031c5.133,0.023,10.301,0.696,15.129,2.031
		c11.524-7.812,16.59-6.187,16.59-6.187c3.285,8.316,1.219,14.457,0.59,15.981c3.871,4.226,6.215,9.613,6.215,16.207
		c0,23.195-14.125,28.302-27.574,29.797c2.168,1.876,4.098,5.551,4.098,11.183c0,8.078-0.071,14.583-0.071,16.57
		c0,1.608,1.086,3.492,4.148,2.899c23.981-7.999,41.262-30.624,41.262-57.295C122.506-2.338,95.471-29.373,62.119-29.373"/>
	<path id="path4939" inkscape:connector-curvature="0" fill="#FFFFFF" d="M24.604,57.33c-0.133,0.3-0.605,0.386-1.035,0.183
		c-0.437-0.199-0.683-0.605-0.543-0.91c0.129-0.308,0.602-0.39,1.039-0.187C24.506,56.615,24.756,57.029,24.604,57.33"/>
	<path id="path4941" inkscape:connector-curvature="0" fill="#FFFFFF" d="M27.049,60.056c-0.289,0.266-0.852,0.145-1.234-0.277
		c-0.395-0.421-0.469-0.985-0.176-1.258c0.297-0.265,0.844-0.14,1.238,0.281C27.272,59.228,27.35,59.787,27.049,60.056"/>
	<path id="path4943" inkscape:connector-curvature="0" fill="#FFFFFF" d="M29.432,63.533c-0.371,0.258-0.977,0.017-1.352-0.52
		c-0.371-0.54-0.371-1.182,0.008-1.437c0.375-0.258,0.973-0.029,1.352,0.503C29.807,62.626,29.807,63.271,29.432,63.533"/>
	<path id="path4945-3" inkscape:connector-curvature="0" fill="#FFFFFF" d="M32.694,66.891c-0.332,0.368-1.039,0.271-1.555-0.23
		c-0.527-0.484-0.676-1.176-0.344-1.542c0.336-0.365,1.046-0.262,1.566,0.23C32.885,65.839,33.045,66.533,32.694,66.891"/>
	<path id="path4947-6" inkscape:connector-curvature="0" fill="#FFFFFF" d="M37.194,68.845c-0.149,0.474-0.828,0.688-1.512,0.489
		c-0.683-0.21-1.129-0.762-0.992-1.244c0.144-0.472,0.824-0.698,1.515-0.484C36.885,67.814,37.334,68.365,37.194,68.845"/>
	<path id="path4949" inkscape:connector-curvature="0" fill="#FFFFFF" d="M42.135,69.21c0.016,0.495-0.562,0.91-1.281,0.917
		c-0.723,0.017-1.309-0.387-1.317-0.874c0-0.505,0.57-0.912,1.289-0.926C41.545,68.311,42.135,68.712,42.135,69.21"/>
	<path id="path4951-7" inkscape:connector-curvature="0" fill="#FFFFFF" d="M46.733,68.424c0.086,0.487-0.414,0.985-1.125,1.117
		c-0.703,0.129-1.352-0.172-1.441-0.653c-0.086-0.499,0.422-0.996,1.121-1.125C46.002,67.638,46.643,67.933,46.733,68.424"/>
</g>
<rect x="75.9" y="-114.948" fill="#0078D4" width="87.327" height="87.328"/>
<g>
	<g>
		<g>
			<path fill="#FFFFFF" d="M646.396,180.652c-1.29,0-2.58-0.006-3.87-0.012c-1.291-0.006-2.582-0.011-3.873-0.011l-89.144-0.001
				c-3.242,0-5.896-0.825-8.11-2.522c-1.819-1.397-2.744-3.18-2.748-5.296l-0.011-6.148c-0.011-7.867-0.023-16.784,0.018-25.507
				c0.017-3.856,2.954-6.655,6.984-6.655c4.129,0.04,7.033,2.821,7.06,6.763c0.05,8.167,0.043,15.413-0.021,22.151
				c-0.007,0.655,0.048,1.323,0.481,1.762c0.347,0.351,0.861,0.5,1.721,0.5c14.759-0.021,29.504-0.031,44.245-0.031
				c15.639,0,31.273,0.014,46.913,0.041c0.888,0,1.42-0.153,1.778-0.514c0.418-0.423,0.496-1.028,0.487-1.868
				c-0.051-5.922-0.04-12.012-0.031-17.385l0.006-4.438c0.003-3.271,1.411-5.493,4.186-6.605c0.934-0.376,1.903-0.566,2.885-0.566
				c2.019,0,3.904,0.802,5.313,2.258c1.13,1.171,1.681,2.646,1.684,4.509l0.014,7.358c0.014,7.155,0.029,15.266-0.029,23.127
				c-0.04,5.293-4.202,8.929-10.358,9.047C650.114,180.643,648.254,180.652,646.396,180.652z"/>
			<path d="M655.352,134.559c1.95,0,3.772,0.774,5.133,2.182c1.083,1.122,1.61,2.541,1.613,4.336l0.014,7.358
				c0.014,7.154,0.029,15.264-0.029,23.124c-0.039,5.147-4.103,8.684-10.113,8.799c-1.618,0.03-3.39,0.045-5.572,0.045
				c-1.289,0-2.579-0.006-3.869-0.012c-1.291-0.006-2.582-0.011-3.874-0.011l-89.144-0.001c-3.186,0-5.788-0.809-7.958-2.471
				c-1.755-1.348-2.646-3.063-2.65-5.099l-0.011-6.148c-0.011-7.866-0.023-16.782,0.018-25.505c0.017-3.712,2.849-6.406,6.729-6.406
				c4.05,0.039,6.789,2.657,6.814,6.514c0.05,8.166,0.043,15.411-0.021,22.147c-0.007,0.71,0.056,1.437,0.554,1.94
				c0.398,0.402,0.966,0.574,1.899,0.574c14.758-0.021,29.503-0.031,44.244-0.031c15.565,0,31.35,0.014,46.913,0.041
				c0.96,0,1.545-0.176,1.957-0.589c0.53-0.536,0.566-1.305,0.559-2.044c-0.051-5.921-0.04-12.011-0.031-17.383l0.006-4.439
				c0.003-3.158,1.358-5.303,4.029-6.374C653.464,134.743,654.402,134.559,655.352,134.559 M655.352,134.059
				c-1.014,0-2.015,0.196-2.978,0.584c-2.879,1.154-4.34,3.457-4.343,6.838l-0.006,4.438c-0.01,5.699-0.019,11.592,0.031,17.388
				c0.009,0.795-0.059,1.329-0.414,1.688c-0.309,0.31-0.783,0.44-1.602,0.44c-15.64-0.027-31.274-0.041-46.913-0.041
				c-14.741,0-29.486,0.01-44.245,0.031c-0.785,0-1.247-0.127-1.543-0.426c-0.369-0.373-0.415-0.98-0.409-1.584
				c0.064-6.752,0.071-13.999,0.021-22.155c-0.027-4.086-2.996-6.969-7.31-7.011c-4.174,0-7.217,2.902-7.234,6.904
				c-0.04,8.5-0.029,17.146-0.018,25.508l0.011,6.148c0.004,2.197,0.961,4.047,2.846,5.494c2.26,1.731,4.963,2.574,8.263,2.574
				l89.144,0.001c1.291,0,2.581,0.005,3.872,0.011c1.29,0.006,2.581,0.012,3.871,0.012c1.859,0,3.721-0.01,5.582-0.045
				c6.301-0.121,10.563-3.856,10.604-9.295c0.058-7.707,0.044-15.547,0.029-23.129l-0.014-7.358
				c-0.003-1.931-0.575-3.461-1.754-4.683C659.39,134.889,657.44,134.059,655.352,134.059L655.352,134.059z"/>
		</g>
		<path fill="#FFFFFF" stroke="#000000" stroke-width="0.5" stroke-miterlimit="10" d="M655.351,134.309
			c2.021,0,3.907,0.801,5.313,2.258c1.13,1.17,1.681,2.646,1.684,4.508c0.002,2.453,0.009,4.906,0.014,7.359
			c0.015,7.58,0.028,15.42-0.029,23.127c-0.041,5.375-4.106,8.926-10.358,9.045c-1.636,0.031-3.405,0.047-5.574,0.047
			c-1.29,0-2.58-0.006-3.87-0.01c-1.291-0.006-2.582-0.011-3.873-0.011H625.88h-12.772h-12.775l-50.817-0.001
			c-3.241,0-5.896-0.824-8.108-2.523c-1.847-1.416-2.744-3.147-2.748-5.297l-0.008-6.146c-0.015-8.361-0.025-17.006,0.015-25.507
			c0.017-3.856,2.955-6.655,6.986-6.655h0.08c4.084,0.04,6.952,2.821,6.978,6.764c0.05,8.153,0.043,15.398-0.021,22.149
			c-0.007,0.655,0.048,1.324,0.479,1.763c0.438,0.44,1.115,0.5,1.736,0.5h0.001c14.742-0.021,29.481-0.031,44.226-0.031
			c16.087,0,31.871,0.015,46.93,0.043c0.88,0,1.405-0.154,1.766-0.519c0.461-0.465,0.494-1.178,0.488-1.866
			c-0.051-5.795-0.041-11.687-0.033-17.385l0.006-4.438c0.003-3.271,1.411-5.492,4.188-6.606
			C653.4,134.498,654.37,134.309,655.351,134.309 M655.351,133.809c-1.021,0-2.063,0.195-3.067,0.602
			c-2.967,1.189-4.497,3.582-4.5,7.068c-0.006,7.275-0.035,14.554,0.025,21.828c0.014,1.358-0.192,1.879-1.753,1.879
			c-0.004,0-0.009,0-0.013,0c-15.639-0.027-31.277-0.041-46.916-0.041c-14.742,0-29.484,0.013-44.227,0.031
			c-0.006,0-0.012,0-0.018,0c-1.402,0-1.715-0.4-1.702-1.758c0.069-7.385,0.065-14.773,0.021-22.159
			c-0.026-4.251-3.145-7.216-7.474-7.259c-0.027,0-0.058,0-0.086,0c-4.257,0-7.468,2.975-7.484,7.152
			c-0.05,10.552-0.021,21.104-0.007,31.658c0.004,2.391,1.07,4.256,2.941,5.691c2.483,1.904,5.34,2.627,8.415,2.627
			c16.94,0.001,33.88,0.001,50.817,0.001c8.518,0,17.033,0,25.55,0c4.258,0,8.517,0,12.773,0c2.58,0,5.161,0.021,7.742,0.021
			c1.862,0,3.727-0.012,5.586-0.047c6.455-0.123,10.808-3.906,10.851-9.543c0.078-10.162,0.025-20.326,0.018-30.49
			c-0.003-1.836-0.508-3.489-1.824-4.854C659.506,134.646,657.465,133.809,655.351,133.809L655.351,133.809z"/>
	</g>
	<g>
		<g>
			<path fill="#FFFFFF" d="M600.53,156.95c-1.489,0-3.07-0.943-5.125-3.06c-2.895-2.981-5.812-6.053-8.632-9.023l-0.947-0.997
				c-1.365-1.44-2.733-2.882-4.104-4.32l-5.884-6.179c-4.018-4.214-8.03-8.427-12.038-12.647c-2.546-2.678-2.846-6.308-0.729-8.828
				c1.236-1.47,2.922-2.28,4.747-2.28c1.841,0,3.629,0.827,5.037,2.328c2.902,3.091,5.804,6.275,8.61,9.354
				c1.259,1.382,2.519,2.764,3.779,4.143l8.932,9.74v-20.372c0.001-15.189,0.002-30.379-0.002-45.568
				c-0.001-2.861,1.198-4.885,3.563-6.015c0.963-0.459,1.924-0.692,2.857-0.692c1.33,0,2.618,0.47,3.827,1.398
				c1.629,1.244,2.419,3.026,2.415,5.447c-0.013,10.583-0.012,21.167-0.01,31.75l0.001,34.021l4.319-4.686
				c1.526-1.657,3.009-3.266,4.488-4.88c1.204-1.313,2.402-2.632,3.602-3.951l0.396-0.437c2.765-3.041,5.623-6.186,8.498-9.234
				c1.424-1.508,3.25-2.339,5.143-2.339c2.634,0,4.805,1.58,5.666,4.123c0.858,2.527,0.274,4.875-1.734,6.98
				c-9.276,9.723-18.553,19.453-27.822,29.185c-0.589,0.617-1.169,1.24-1.749,1.864c-0.632,0.678-1.263,1.353-1.901,2.021
				C603.643,155.978,602.037,156.95,600.53,156.95z"/>
			<path d="M600.595,62.783c1.274,0,2.511,0.453,3.676,1.347c1.563,1.193,2.32,2.91,2.316,5.248
				c-0.013,10.583-0.012,21.167-0.01,31.75l0.001,33.382v1.28l0.867-0.941l3.131-3.396l0.748-0.813
				c1.529-1.659,3.014-3.271,4.495-4.888c1.207-1.316,2.408-2.638,3.61-3.96l0.39-0.429c2.764-3.041,5.622-6.186,8.494-9.231
				c1.376-1.458,3.138-2.261,4.961-2.261c2.523,0,4.604,1.515,5.429,3.954c0.826,2.432,0.262,4.695-1.678,6.727
				c-9.277,9.724-18.554,19.453-27.822,29.186c-0.59,0.617-1.171,1.241-1.751,1.865c-0.631,0.677-1.262,1.352-1.899,2.02
				c-2.04,2.127-3.589,3.076-5.022,3.076c-1.416,0-2.941-0.92-4.946-2.984c-2.893-2.979-5.809-6.051-8.629-9.021l-0.947-0.997
				c-1.366-1.441-2.733-2.883-4.104-4.32l-5.884-6.179c-4.018-4.214-8.03-8.428-12.039-12.647c-2.455-2.583-2.75-6.076-0.718-8.495
				c1.188-1.413,2.806-2.191,4.556-2.191c1.771,0,3.495,0.799,4.855,2.249c2.9,3.089,5.802,6.273,8.606,9.352
				c1.26,1.382,2.52,2.765,3.781,4.144l8.497,9.266l0.868,0.947v-1.285v-19.729c0.001-15.189,0.002-30.379-0.002-45.568
				c-0.001-2.756,1.15-4.704,3.421-5.789C598.773,63.008,599.698,62.783,600.595,62.783 M600.595,62.283
				c-0.971,0-1.968,0.241-2.965,0.717c-2.459,1.175-3.706,3.274-3.705,6.24c0.004,15.189,0.003,30.379,0.002,45.568v19.729
				l-8.497-9.266c-1.261-1.378-2.521-2.76-3.779-4.142c-2.808-3.081-5.711-6.267-8.612-9.357c-1.456-1.552-3.312-2.407-5.22-2.407
				c-1.901,0-3.654,0.842-4.938,2.37c-2.201,2.62-1.897,6.388,0.738,9.161c4.009,4.22,8.021,8.434,12.039,12.648l5.884,6.179
				c1.371,1.438,2.738,2.879,4.104,4.319c3.13,3.295,6.362,6.707,9.581,10.022c2.105,2.168,3.741,3.136,5.305,3.136
				c1.582,0,3.241-0.996,5.384-3.23c0.64-0.67,1.271-1.346,1.904-2.024c0.579-0.623,1.158-1.245,1.746-1.861
				c9.27-9.732,18.546-19.462,27.822-29.185c2.077-2.176,2.682-4.609,1.79-7.233c-0.896-2.648-3.161-4.293-5.902-4.293
				c-1.962,0-3.853,0.858-5.324,2.418c-2.871,3.044-5.733,6.193-8.501,9.238c-1.331,1.464-2.661,2.929-3.998,4.387
				c-1.722,1.879-3.448,3.751-5.243,5.699l-3.13,3.396l-0.001-33.382c-0.002-10.584-0.003-21.167,0.01-31.75
				c0.004-2.504-0.817-4.351-2.513-5.646C603.32,62.771,601.98,62.283,600.595,62.283L600.595,62.283z"/>
		</g>
		<path fill="#FFFFFF" stroke="#000000" stroke-width="0.5" stroke-miterlimit="10" d="M600.596,62.533
			c1.328,0,2.616,0.47,3.828,1.398c1.629,1.245,2.418,3.026,2.414,5.448c-0.014,10.582-0.012,21.164-0.01,31.746l0.001,10.582
			v22.164v1.281l0.868-0.942l2.695-2.929c1.797-1.946,3.521-3.818,5.241-5.696c1.337-1.459,2.668-2.923,3.999-4.388
			c2.77-3.044,5.629-6.193,8.498-9.234c1.425-1.509,3.251-2.34,5.145-2.34c2.633,0,4.805,1.58,5.667,4.124
			c0.869,2.564,0.303,4.847-1.733,6.98c-9.279,9.723-18.554,19.455-27.824,29.185c-0.588,0.615-1.168,1.238-1.749,1.863
			c-0.63,0.677-1.261,1.354-1.899,2.021c-2.092,2.182-3.696,3.152-5.204,3.152c-1.49,0-3.07-0.943-5.124-3.061
			c-3.217-3.313-6.451-6.725-9.578-10.021c-1.367-1.438-2.734-2.884-4.104-4.32l-5.882-6.175
			c-4.017-4.216-8.032-8.431-12.042-12.651c-2.585-2.721-2.878-6.269-0.728-8.828c1.234-1.471,2.921-2.281,4.745-2.281
			c1.84,0,3.629,0.827,5.038,2.329c2.897,3.088,5.802,6.273,8.607,9.354c1.259,1.382,2.521,2.765,3.782,4.143l4.222,4.604
			l3.841,4.188l0.868,0.947v-1.285v-1.998V114.83c0.001-15.196,0.002-30.393-0.002-45.589c-0.001-2.902,1.164-4.869,3.563-6.015
			C598.702,62.766,599.663,62.533,600.596,62.533 M600.596,62.033c-1.007,0-2.035,0.247-3.07,0.741
			c-2.68,1.279-3.851,3.537-3.85,6.466c0.005,20.885,0.002,41.771,0.002,62.656c0,0.535,0,1.071,0,1.998
			c-2.885-3.146-5.475-5.971-8.063-8.792c-4.128-4.504-8.214-9.048-12.396-13.501c-1.562-1.665-3.506-2.486-5.4-2.486
			c-1.902,0-3.758,0.827-5.128,2.459c-2.293,2.729-2.002,6.6,0.748,9.494c5.968,6.282,11.946,12.55,17.924,18.827
			c4.559,4.785,9.084,9.604,13.687,14.347c2.08,2.144,3.784,3.211,5.482,3.211c1.729,0,3.454-1.104,5.563-3.308
			c1.23-1.285,2.426-2.603,3.65-3.889c9.271-9.73,18.546-19.462,27.824-29.185c2.053-2.15,2.811-4.642,1.846-7.486
			c-0.981-2.895-3.474-4.463-6.141-4.463c-1.908,0-3.907,0.803-5.507,2.497c-4.229,4.483-8.338,9.083-12.503,13.627
			c-2.563,2.799-5.141,5.585-7.938,8.624c0-7.636,0-14.901,0-22.164c0-14.109-0.009-28.218,0.009-42.327
			c0.004-2.363-0.706-4.39-2.609-5.846C603.422,62.535,602.031,62.033,600.596,62.033L600.596,62.033z"/>
	</g>
</g>
<rect x="500.365" y="-79.182" fill="#FFFFFF" width="31.018" height="33.774"/>
<rect x="650.594" y="-47.13" fill="#FFFFFF" width="25.503" height="21.367"/>
<rect x="5.514" y="-66.085" width="40.93" height="34.463"/>
<g>
	<path fill="#FFFFFF" d="M222.767,144.854c0.238-2.894,0.249-5.828,0.771-8.668c0.714-3.898,1.451-7.859,2.826-11.552
		c3.328-8.937,9.901-14.368,19.264-16.215c8.541-1.685,17.051-1.239,25.428,1.078c4.354,1.205,4.314,1.321,3.227,5.733
		c-0.54,2.192-1.13,4.375-1.559,6.588c-0.318,1.642-1.055,1.99-2.618,1.491c-5.585-1.777-11.314-2.091-17.106-1.377
		c-6.51,0.802-10.867,4.371-12.74,10.618c-2.399,7.999-2.365,16.11,0.104,24.079c2.072,6.688,6.73,9.955,13.726,10.046
		c2.37,0.027,4.743-0.245,7.116-0.342c1.051-0.039,1.439-0.496,1.428-1.554c-0.044-3.748-0.045-7.497,0.001-11.245
		c0.013-1.07-0.33-1.482-1.433-1.453c-2.318,0.063-4.641-0.029-6.959,0.033c-1.337,0.036-1.95-0.384-1.916-1.829
		c0.076-3.212,0.063-6.426,0.006-9.639c-0.023-1.334,0.544-1.775,1.813-1.771c7.318,0.025,14.637,0.033,21.954-0.006
		c1.483-0.008,1.965,0.609,1.96,2.042c-0.034,10.946-0.041,21.896,0.01,32.84c0.006,1.287-0.523,1.938-1.571,2.481
		c-7.336,3.813-15.185,5.203-23.327,4.434c-4.223-0.402-8.549-1.075-12.518-2.497c-9.498-3.401-14.392-10.905-16.383-20.438
		c-0.713-3.414-0.845-6.946-1.244-10.426c-0.08-0.701-0.171-1.396-0.257-2.095C222.767,145.091,222.767,144.973,222.767,144.854z"/>
	<path fill="#FFFFFF" d="M363.146,135.927c7.621,0,14.979,0,22.611,0c0-0.762,0-1.448,0-2.135c0-7.08-0.004-14.161,0.002-21.241
		c0.002-2.308,0.08-2.375,2.438-2.379c3.57-0.006,7.143,0.064,10.71-0.031c1.669-0.044,2.313,0.453,2.307,2.217
		c-0.045,21.658-0.041,43.315-0.005,64.975c0.002,1.634-0.557,2.196-2.188,2.156c-3.745-0.093-7.497-0.089-11.243,0
		c-1.584,0.036-2.079-0.571-2.07-2.089c0.053-8.688,0.044-17.373,0.049-26.063c0-0.469-0.054-0.937-0.092-1.569
		c-7.445,0-14.833,0-22.424,0c-0.031,0.698-0.087,1.385-0.089,2.072c-0.005,8.449,0,16.896-0.005,25.348
		c-0.001,2.238-0.037,2.27-2.326,2.271c-3.689,0.002-7.379-0.044-11.067,0.023c-1.464,0.024-1.994-0.498-1.991-1.975
		c0.029-21.777,0.032-43.556-0.007-65.331c-0.004-1.602,0.598-2.062,2.104-2.032c3.688,0.071,7.38,0.094,11.066-0.008
		c1.695-0.048,2.277,0.482,2.258,2.223c-0.084,7.139-0.035,14.281-0.035,21.421C363.146,134.428,363.146,135.07,363.146,135.927z"/>
	<path fill="#FFFFFF" d="M473.24,176.039c-0.896,3.844-0.151,3.396-4.232,3.42c-1.9,0.012-3.81-0.063-5.707,0.021
		c-1.502,0.066-2.08-0.574-1.949-2.008c0.021-0.236,0.002-0.478,0.002-0.713c0-21.292,0-42.578,0-63.87
		c0-2.714,0.003-2.717,2.635-2.719c3.565-0.003,7.139,0.069,10.702-0.032c1.674-0.048,2.172,0.582,2.154,2.184
		c-0.058,6.422-0.021,12.844-0.021,19.268c0,0.647,0,1.296,0,2.211c0.658-0.266,1.119-0.429,1.561-0.631
		c4.664-2.137,9.555-2.815,14.619-2.176c7.152,0.905,12.105,5.545,13.861,13.418c1.832,8.203,1.56,16.455-0.763,24.526
		c-2.31,8.031-7.576,11.644-16.549,11.846C483.863,180.918,480.103,179.831,473.24,176.039z M476.546,155.828
		c0,3.093,0.053,6.188-0.029,9.277c-0.029,1.151,0.415,1.711,1.427,2.117c2.871,1.162,5.809,1.646,8.896,1.271
		c2.373-0.286,4.032-1.518,4.711-3.766c0.513-1.691,0.972-3.487,0.957-5.23c-0.034-3.721-0.03-7.508-0.711-11.143
		c-0.709-3.783-3.319-5.563-7.123-5.322c-2.266,0.143-4.498,0.902-6.737,1.418c-1.093,0.252-1.442,0.961-1.418,2.099
		C476.596,149.643,476.545,152.734,476.546,155.828z"/>
	<path fill="#FFFFFF" d="M442.634,176.309c-4.205,2.371-8.567,4.004-13.321,4.407c-3.947,0.341-7.853,0.085-11.618-1.222
		c-6.234-2.159-8.632-7.139-8.77-13.176c-0.247-10.822-0.089-21.653-0.12-32.479c-0.003-1.037,0.397-1.553,1.458-1.552
		c4.166,0.01,8.331,0.023,12.494-0.008c1.509-0.012,1.534,0.965,1.533,2.041c-0.006,5.412-0.004,10.824-0.002,16.238
		c0,3.631-0.012,7.26,0.01,10.887c0.005,1.01,0.059,2.027,0.195,3.022c0.324,2.357,1.556,3.611,3.875,4.011
		c3.24,0.56,6.288-0.136,9.109-1.688c0.533-0.29,0.936-1.311,0.939-1.995c0.059-10.054,0.037-20.106,0.04-30.161
		c0.002-2.261,0.074-2.343,2.271-2.349c3.688-0.009,7.376,0.039,11.065-0.021c1.438-0.025,2.001,0.445,1.995,1.951
		c-0.04,14.456-0.036,28.912-0.004,43.367c0.003,1.368-0.454,1.95-1.863,1.905c-2.14-0.066-4.287-0.093-6.424,0.021
		c-1.588,0.086-2.536-0.328-2.529-2.086C442.972,177.09,442.775,176.757,442.634,176.309z"/>
	<path fill="#FFFFFF" d="M329.456,132.131c3.216,0,6.129,0.039,9.041-0.017c1.431-0.027,2.063,0.485,2.027,1.976
		c-0.067,2.854-0.059,5.715-0.002,8.567c0.025,1.358-0.459,1.938-1.871,1.905c-2.965-0.066-5.932-0.019-9.072-0.019
		c-0.047,0.695-0.117,1.263-0.118,1.831c-0.009,5.533-0.014,11.068-0.002,16.602c0.007,3.541,1.549,5.239,5.117,5.5
		c1.476,0.107,2.972,0.021,4.452-0.059c1.154-0.063,1.627,0.4,1.61,1.548c-0.036,2.675,0.048,5.357-0.081,8.029
		c-0.027,0.56-0.671,1.43-1.192,1.575c-5.449,1.518-10.945,1.652-16.324-0.234c-5.681-1.992-8.641-6.82-8.761-14.156
		c-0.102-6.127-0.031-12.257-0.034-18.386c-0.001-0.647-0.001-1.298-0.001-2.25c-2.047,0-3.986-0.073-5.917,0.021
		c-1.518,0.078-2.173-0.396-2.091-2.01c0.109-2.195,0.061-4.4,0.014-6.603c-0.023-1.063,0.327-1.642,1.438-1.841
		c1.518-0.273,2.993-0.795,4.516-1.021c1.557-0.231,2.168-0.844,2.087-2.53c-0.157-3.321,0.015-6.662-0.074-9.993
		c-0.036-1.387,0.358-1.891,1.798-1.859c3.865,0.083,7.734,0.076,11.602,0.002c1.379-0.026,1.891,0.373,1.85,1.812
		c-0.089,3.212-0.017,6.425-0.01,9.639C329.457,130.744,329.456,131.324,329.456,132.131z"/>
	<path fill="#FFFFFF" d="M301.754,155.932c0,7.021,0.008,14.035-0.005,21.053c-0.004,2.289-0.193,2.469-2.43,2.475
		c-3.509,0.01-7.018,0.018-10.525-0.004c-2.003-0.01-2.426-0.432-2.426-2.4c-0.008-14.272,0.011-28.544-0.025-42.815
		c-0.004-1.54,0.557-2.144,2.088-2.123c3.688,0.053,7.377,0.073,11.061-0.011c1.666-0.037,2.316,0.479,2.297,2.242
		C301.707,141.539,301.754,148.736,301.754,155.932z"/>
	<path fill="#FFFFFF" d="M293.94,111.678c4.688,0.017,8.453,3.723,8.451,8.318c-0.002,4.587-3.772,8.326-8.432,8.361
		c-4.69,0.035-8.641-3.844-8.585-8.432C285.43,115.371,289.284,111.66,293.94,111.678z"/>
</g>
</svg>
