<?xml version="1.0" encoding="utf-8"?>
<!-- Generator: Adobe Illustrator 16.0.0, SVG Export Plug-In . SVG Version: 6.00 Build 0)  -->
<!DOCTYPE svg PUBLIC "-//W3C//DTD SVG 1.0//EN" "http://www.w3.org/TR/2001/REC-SVG-20010904/DTD/svg10.dtd">
<svg version="1.0" id="Layer_1" xmlns="http://www.w3.org/2000/svg" xmlns:xlink="http://www.w3.org/1999/xlink" x="0px" y="0px"
	 width="950px" height="225px" viewBox="0 0 950 225" enable-background="new 0 0 950 225" xml:space="preserve">
<rect x="9.687" y="9.711" fill="#2F2F2F" stroke="#11ADE4" stroke-width="20.4199" stroke-miterlimit="10" width="930.562" height="205.474"/>
<g>
	<path fill-rule="evenodd" clip-rule="evenodd" fill="#FEFEFF" d="M117.809,181.121c-18.977,0-37.953,0-56.93-0.002
		c-3.446,0-6.645-0.809-9.426-2.941c-2.098-1.609-3.295-3.701-3.298-6.379c-0.014-11.821-0.048-23.644,0.007-35.464
		c0.022-4.714,3.667-8.059,8.483-8.013c4.852,0.047,8.341,3.369,8.37,8.131c0.05,8.274,0.055,16.551-0.022,24.824
		c-0.014,1.525,0.336,1.973,1.925,1.97c34.034-0.05,68.066-0.054,102.1,0.01c1.761,0.003,1.991-0.579,1.979-2.106
		c-0.069-8.149-0.037-16.301-0.03-24.451c0.003-3.908,1.718-6.586,5.042-7.921c3.458-1.389,7.271-0.584,9.793,2.027
		c1.475,1.528,2.041,3.383,2.043,5.438c0.01,11.387,0.067,22.773-0.02,34.158c-0.048,6.312-4.923,10.551-12.153,10.689
		c-4.977,0.096-9.955,0.029-14.933,0.029C146.43,181.122,132.119,181.121,117.809,181.121z"/>
	<path fill-rule="evenodd" clip-rule="evenodd" fill="#FEFEFF" d="M110.357,128.203c0-1.035,0-1.637,0-2.238
		c0-23.396,0.003-46.794-0.002-70.19c-0.001-3.281,1.31-5.811,4.31-7.243c2.819-1.345,5.583-1.053,8.072,0.851
		c2.133,1.631,2.927,3.901,2.923,6.548c-0.019,15.806-0.009,31.611-0.009,47.417c0,8.137,0,16.274,0,24.829
		c3.133-3.404,6.018-6.526,8.891-9.66c4.667-5.092,9.267-10.244,14.006-15.266c4.295-4.551,11.161-3.36,13.047,2.203
		c1.08,3.187,0.232,5.977-2.067,8.386c-10.396,10.893-20.784,21.793-31.171,32.694c-1.374,1.44-2.71,2.917-4.088,4.354
		c-4.69,4.89-7.675,4.953-12.376,0.108c-5.156-5.313-10.227-10.71-15.333-16.071c-6.695-7.029-13.394-14.053-20.08-21.09
		c-3.081-3.242-3.407-7.577-0.838-10.635c3.07-3.653,8.293-3.705,11.798,0.03c4.684,4.99,9.26,10.08,13.884,15.125
		C104.224,121.518,107.125,124.679,110.357,128.203z"/>
</g>
<g>
	<text transform="matrix(1 0 0 1 205.5039 155.2832)" fill="#00AEE0" font-family="'MyriadPro-Regular'" font-size="133.5126">DOWNLOAD</text>
</g>
</svg>
